<?xml version="1.0" encoding="UTF-8" standalone="no"?>
<!-- Created with Inkscape (http://www.inkscape.org/) -->

<svg
   width="1024"
   height="1024"
   viewBox="0 0 270.93333 270.93333"
   version="1.1"
   id="svg1"
   inkscape:version="1.4.2 (f4327f4, 2025-05-13)"
   sodipodi:docname="just_zero_3.svg"
   inkscape:export-filename="just_zero.png"
   inkscape:export-xdpi="96"
   inkscape:export-ydpi="96"
   xmlns:inkscape="http://www.inkscape.org/namespaces/inkscape"
   xmlns:sodipodi="http://sodipodi.sourceforge.net/DTD/sodipodi-0.dtd"
   xmlns="http://www.w3.org/2000/svg"
   xmlns:svg="http://www.w3.org/2000/svg">
  <sodipodi:namedview
     id="namedview1"
     pagecolor="#000000"
     bordercolor="#000000"
     borderopacity="0.25"
     inkscape:showpageshadow="2"
     inkscape:pageopacity="0.0"
     inkscape:pagecheckerboard="0"
     inkscape:deskcolor="#d1d1d1"
     inkscape:document-units="mm"
     inkscape:zoom="0.68862935"
     inkscape:cx="307.85792"
     inkscape:cy="493.00832"
     inkscape:window-width="1920"
     inkscape:window-height="991"
     inkscape:window-x="-9"
     inkscape:window-y="-9"
     inkscape:window-maximized="1"
     inkscape:current-layer="layer1" />
  <defs
     id="defs1" />
  <g
     inkscape:label="Layer 1"
     inkscape:groupmode="layer"
     id="layer1">
    <g
       id="g4"
       style="fill:#eeeeee;fill-opacity:1"
       clip-path="none"
       transform="matrix(1.0157236,0,0,1.2056396,-641.33646,-494.56833)">
      <g
         id="g51">
        <path
           id="path1-82"
           style="fill:#eeeeee;fill-opacity:1;stroke-width:0.308041"
           d="m 765.33203,453.06836 c -24.27185,-9.4e-4 -26.05382,0.029 -29.7793,0.49805 -6.23271,0.78479 -10.32081,1.78765 -15.72656,3.85742 -10.90305,4.17459 -19.79177,11.34687 -23.79297,19.19922 -2.5023,4.91108 -2.50455,4.43745 -2.59765,21.54297 l -0.13867,25.61523 h 19.63476 11.63281 l 0.13282,-23.62305 c 0.0741,-13.2136 0.1573,-9.67154 0.96289,-11.24023 2.34367,-4.5636 16.14712,-8.21767 22.58789,-9.18555 1.02356,-0.15381 7.72359,-0.25967 16.60351,-0.26367 12.16796,-0.005 15.29848,0.0633 17.13282,0.375 1.58604,0.26955 3.63997,0.69299 5.85937,1.24805 l 26.1543,-22.69532 c -5.68929,-2.49386 -12.204,-4.201 -19.22461,-4.94336 -3.00508,-0.31777 -8.02655,-0.38401 -29.44141,-0.38476 z m 70.48242,29.33203 -31.06445,26.95508 0.11914,14.30078 11.50391,0.0644 c 17.96312,0.0593 19.51976,0.0313 19.74609,-0.35351 0.13504,-0.2298 0.18136,-17.36941 0.10156,-25.86524 -0.0758,-8.07947 -0.11478,-12.32826 -0.40625,-15.10156 z" />
        <path
           id="path1-82-9"
           style="fill:#eeeeee;fill-opacity:1;stroke-width:0.308041"
           d="m 804.99023,521.36523 -0.13085,23.62305 c -0.0741,13.2136 -0.15926,9.67155 -0.96485,11.24024 -2.34367,4.5636 -16.14517,8.21766 -22.58594,9.18554 -1.02356,0.15381 -7.72359,0.25967 -16.60351,0.26367 -12.16796,0.005 -15.29848,-0.0633 -17.13281,-0.375 -1.58605,-0.26955 -3.63997,-0.69299 -5.85938,-1.24804 l -26.15234,22.69336 c 5.6889,2.49347 12.2027,4.20303 19.22265,4.94531 3.00508,0.31778 8.0246,0.38401 29.43946,0.38476 24.27185,9.4e-4 26.05577,-0.0289 29.78125,-0.49804 6.23271,-0.78479 10.32081,-1.78765 15.72656,-3.85742 10.90305,-4.17459 19.79177,-11.34687 23.79297,-19.19922 2.5023,-4.91108 2.50455,-4.4394 2.59765,-21.54492 l 0.13868,-25.61329 H 816.625 Z m -91.80664,0.0606 c -17.96312,-0.0593 -19.52171,-0.0313 -19.74804,0.35352 -0.13504,0.2298 -0.17941,17.3694 -0.0996,25.86523 0.0758,8.07841 0.11489,12.32629 0.40625,15.09961 l 31.0625,-26.95312 -0.11914,-14.30079 z" />
      </g>
    </g>
  </g>
</svg>
