<?xml version="1.0" encoding="UTF-8" standalone="no"?>
<!-- Created with Inkscape (http://www.inkscape.org/) -->

<svg
   version="1.1"
   id="svg1"
   width="1024"
   height="500"
   viewBox="0 0 1024 500"
   sodipodi:docname="Zero_Logo_monochrome_3.svg"
   inkscape:export-filename="Zero_Logo_monochrome_white.png"
   inkscape:export-xdpi="96"
   inkscape:export-ydpi="96"
   inkscape:version="1.4.2 (f4327f4, 2025-05-13)"
   xml:space="preserve"
   xmlns:inkscape="http://www.inkscape.org/namespaces/inkscape"
   xmlns:sodipodi="http://sodipodi.sourceforge.net/DTD/sodipodi-0.dtd"
   xmlns="http://www.w3.org/2000/svg"
   xmlns:svg="http://www.w3.org/2000/svg"><defs
     id="defs1" /><sodipodi:namedview
     id="namedview1"
     pagecolor="#000000"
     bordercolor="#000000"
     borderopacity="0"
     inkscape:showpageshadow="2"
     inkscape:pageopacity="0.0"
     inkscape:pagecheckerboard="0"
     inkscape:deskcolor="#d1d1d1"
     inkscape:zoom="0.50000001"
     inkscape:cx="505.99999"
     inkscape:cy="444.99999"
     inkscape:window-width="1920"
     inkscape:window-height="991"
     inkscape:window-x="-9"
     inkscape:window-y="-9"
     inkscape:window-maximized="1"
     inkscape:current-layer="g52" /><g
     inkscape:groupmode="layer"
     inkscape:label="Image"
     id="g1"><g
       id="g52"
       transform="translate(10.260183,4.650695)"><g
         id="g2"
         transform="translate(2.0439073e-5,-1.7847105)"><path
           d="m 95.732112,342.26729 c -0.466782,-0.52186 -0.848693,-8.10812 -0.848693,-16.85833 v -15.90948 l 26.415411,-28.38806 c 14.52847,-15.61344 38.30233,-41.09588 52.83081,-56.62764 14.52847,-15.53176 26.4154,-28.78892 26.4154,-29.46034 0,-0.67142 -23.34422,-1.38805 -51.87604,-1.59255 L 96.792961,193.0591 v -20.6377 -20.63769 l 84.974849,-0.36592 84.97487,-0.36591 -0.10276,19.58032 -0.10276,19.58032 -18.67432,19.79925 c -69.6438,73.83914 -81.68945,86.90398 -81.68945,88.60191 0,1.55931 9.67462,1.90379 53.46733,1.90379 h 53.46732 v 21.34935 21.34934 h -88.26352 c -48.54496,0 -88.645441,-0.42699 -89.112223,-0.94887 z m 214.882238,-0.81992 c -0.33636,-0.9842 -0.46319,-44.06113 -0.28182,-95.72654 l 0.32975,-93.93712 h 83.38357 83.38357 v 19.92605 19.92605 l -61.74204,0.71165 -61.74203,0.71164 v 16.36783 16.36784 l 51.55778,0.71165 51.55778,0.71164 v 18.50277 18.50276 l -51.55778,0.71165 -51.55778,0.71164 v 17.79112 17.79112 l 62.09517,0.36938 62.09518,0.36939 -0.35315,20.26831 -0.35313,20.26831 -83.10172,0.36614 c -65.80543,0.28993 -83.22903,-0.006 -83.71335,-1.42328 z m 205.64252,-94.30325 v -96.07206 h 67.29692 c 39.88155,0 70.05254,0.58426 74.06105,1.43418 15.99399,3.39121 27.67966,12.72406 34.73747,27.74326 3.98244,8.47495 4.0163,8.72579 4.44874,33.06352 0.41908,23.57853 0.31481,24.81944 -2.70519,32.19483 -1.72776,4.21907 -5.25991,10.29297 -7.84939,13.49756 -4.39795,5.44261 -18.05095,14.46956 -21.88468,14.46956 -0.93849,0 -1.70624,0.85242 -1.70624,1.89427 0,1.04185 8.67647,15.61278 19.28107,32.37984 10.60462,16.76706 19.55083,31.60641 19.88044,32.97632 0.55554,2.30831 -1.17349,2.49076 -23.60443,2.49076 h -24.20378 l -18.13305,-30.2449 c -9.97319,-16.6347 -19.29828,-31.68599 -20.72267,-33.44731 -2.52214,-3.11902 -3.25667,-3.2024 -28.21029,-3.2024 -18.22981,0 -26.06137,0.4927 -27.1483,1.70795 -1.09683,1.22628 -1.52763,10.65886 -1.52763,33.4473 v 31.73936 h -21.00502 -21.00502 z m 134.84374,-15.7827 c 3.85971,-3.63109 3.91674,-3.87875 3.91674,-17.00012 0,-12.02237 -0.29819,-13.70323 -3.07144,-17.30879 l -3.07156,-3.99341 h -44.98539 -44.98554 l -0.35695,19.14262 c -0.19632,10.52843 -0.0713,19.97551 0.27827,20.99352 0.50439,1.46947 9.67454,1.85092 44.49721,1.85092 h 43.86193 z"
           style="fill:#ffffff;stroke-width:1.34607"
           id="path1-8"
           sodipodi:nodetypes="sscsssscccccccssscccsssscccccccccccccccccccccssccssssssssssscsssssccccssscccssscs" /><g
           id="g4"
           style="fill:#ffffff;fill-opacity:1"
           clip-path="none"
           transform="matrix(1.1990886,0,0,1.4232895,-94.153473,-496.63899)"><g
             id="g51"
             style="fill:#ffffff"><path
               id="path1-82"
               style="fill:#ffffff;fill-opacity:1;stroke-width:0.308041"
               d="m 765.33203,453.06836 c -24.27185,-9.4e-4 -26.05382,0.029 -29.7793,0.49805 -6.23271,0.78479 -10.32081,1.78765 -15.72656,3.85742 -10.90305,4.17459 -19.79177,11.34687 -23.79297,19.19922 -2.5023,4.91108 -2.50455,4.43745 -2.59765,21.54297 l -0.13867,25.61523 h 19.63476 11.63281 l 0.13282,-23.62305 c 0.0741,-13.2136 0.1573,-9.67154 0.96289,-11.24023 2.34367,-4.5636 16.14712,-8.21767 22.58789,-9.18555 1.02356,-0.15381 7.72359,-0.25967 16.60351,-0.26367 12.16796,-0.005 15.29848,0.0633 17.13282,0.375 1.58604,0.26955 3.63997,0.69299 5.85937,1.24805 l 26.1543,-22.69532 c -5.68929,-2.49386 -12.204,-4.201 -19.22461,-4.94336 -3.00508,-0.31777 -8.02655,-0.38401 -29.44141,-0.38476 z m 70.48242,29.33203 -31.06445,26.95508 0.11914,14.30078 11.50391,0.0644 c 17.96312,0.0593 19.51976,0.0313 19.74609,-0.35351 0.13504,-0.2298 0.18136,-17.36941 0.10156,-25.86524 -0.0758,-8.07947 -0.11478,-12.32826 -0.40625,-15.10156 z" /><path
               id="path1-82-9"
               style="fill:#ffffff;fill-opacity:1;stroke-width:0.308041"
               d="m 804.99023,521.36523 -0.13085,23.62305 c -0.0741,13.2136 -0.15926,9.67155 -0.96485,11.24024 -2.34367,4.5636 -16.14517,8.21766 -22.58594,9.18554 -1.02356,0.15381 -7.72359,0.25967 -16.60351,0.26367 -12.16796,0.005 -15.29848,-0.0633 -17.13281,-0.375 -1.58605,-0.26955 -3.63997,-0.69299 -5.85938,-1.24804 l -26.15234,22.69336 c 5.6889,2.49347 12.2027,4.20303 19.22265,4.94531 3.00508,0.31778 8.0246,0.38401 29.43946,0.38476 24.27185,9.4e-4 26.05577,-0.0289 29.78125,-0.49804 6.23271,-0.78479 10.32081,-1.78765 15.72656,-3.85742 10.90305,-4.17459 19.79177,-11.34687 23.79297,-19.19922 2.5023,-4.91108 2.50455,-4.4394 2.59765,-21.54492 l 0.13868,-25.61329 H 816.625 Z m -91.80664,0.0606 c -17.96312,-0.0593 -19.52171,-0.0313 -19.74804,0.35352 -0.13504,0.2298 -0.17941,17.3694 -0.0996,25.86523 0.0758,8.07841 0.11489,12.32629 0.40625,15.09961 l 31.0625,-26.95312 -0.11914,-14.30079 z" /></g></g><path
           style="fill:#ffffff;fill-opacity:1;stroke-width:0.225921;stroke-dasharray:none"
           d="m 325.61554,342.54547 c -10.07202,-0.25015 -13.60008,-0.51387 -14.52545,-1.08578 -0.69484,-0.42944 -0.82674,-31.97807 -0.49917,-119.39426 l 0.26265,-70.09196 h 83.21819 83.21818 v 19.74173 19.74174 l -18.82671,0.22948 c -10.3547,0.12622 -34.41843,0.3928 -53.47495,0.5924 -19.05653,0.1996 -38.34729,0.45809 -42.86835,0.57443 l -8.22012,0.21153 v 16.36205 16.36204 l 6.8059,0.21299 c 3.74325,0.11714 19.77248,0.37486 35.62051,0.57272 15.84803,0.19785 35.93428,0.46322 44.63611,0.58971 l 15.82152,0.22997 v 18.28679 18.28679 l -12.10921,0.23183 c -11.82555,0.2264 -84.66693,1.26443 -88.72807,1.26443 h -2.04676 v 17.98399 17.98397 l 49.93942,0.22595 c 27.46668,0.12426 55.40644,0.32566 62.08836,0.44754 l 12.14894,0.22159 -0.21295,7.64305 c -0.11712,4.20367 -0.31222,13.15583 -0.43356,19.89368 l -0.22061,12.25065 -5.35142,0.20427 c -8.22091,0.31382 -134.83234,0.51007 -146.24245,0.22668 z"
           id="path53" /><path
           style="fill:#ffffff;fill-opacity:1;stroke-width:0.225921;stroke-dasharray:none"
           d="m 325.61554,342.54547 c -10.08521,-0.25047 -13.5999,-0.51377 -14.52976,-1.08844 -0.69433,-0.42911 -0.82388,-31.83618 -0.49395,-119.74516 l 0.26174,-69.7384 h 83.21819 83.21818 v 19.74173 19.74174 l -18.82671,0.22948 c -10.3547,0.12622 -34.41843,0.3928 -53.47495,0.5924 -19.05653,0.1996 -38.34729,0.45809 -42.86835,0.57443 l -8.22012,0.21153 v 16.36205 16.36204 l 6.8059,0.21299 c 3.74325,0.11714 19.77248,0.37486 35.62051,0.57272 15.84803,0.19785 35.93428,0.46322 44.63611,0.58971 l 15.82152,0.22997 v 18.28679 18.28679 l -12.10921,0.23183 c -11.82555,0.2264 -84.66693,1.26443 -88.72807,1.26443 h -2.04676 v 17.98399 17.98397 l 49.93942,0.22595 c 27.46668,0.12426 55.40471,0.32562 62.08451,0.44745 l 12.1451,0.22152 -0.21099,7.99668 c -0.11605,4.39817 -0.30937,13.35037 -0.4296,19.89376 l -0.21861,11.89708 -5.35153,0.20429 c -8.22098,0.31381 -134.83234,0.51007 -146.24257,0.22668 z"
           id="path54" /><path
           style="fill:#ffffff;fill-opacity:1;stroke-width:0.639;stroke-dasharray:none"
           d="m 516.73982,246.97038 v -96.16363 l 67.25,0.64407 c 41.70542,0.39942 69.52907,1.06185 73.25,1.74396 14.3435,2.62937 26.87229,12.33197 33.96299,26.30176 3.80649,7.49937 3.85529,7.74316 4.77597,23.85714 0.5116,8.95418 0.71763,20.85312 0.45784,26.44208 -0.42725,9.1915 -0.832,10.91013 -4.23913,18 -4.8077,10.00428 -12.5694,17.82839 -22.3073,22.48668 -3.85346,1.84337 -7.2246,3.84897 -7.49143,4.4569 -0.55791,1.27114 4.33593,9.73366 24.17209,41.79881 7.79293,12.59727 14.16897,23.46778 14.16897,24.15668 0,1.67095 -14.2862,2.66438 -32.41555,2.2541 l -13.91555,-0.31491 -18.36188,-30.5 c -10.09904,-16.775 -19.73067,-31.75896 -21.40362,-33.2977 l -3.04172,-2.79769 -25.38259,0.29769 c -19.15808,0.2247 -25.70095,0.61623 -26.68084,1.59663 -0.99545,0.99597 -1.37633,8.75109 -1.63299,33.25 l -0.33475,31.95107 h -20.41525 -20.41526 z m 135.05383,-15.3932 3.44617,-3.55683 v -13.69317 c 0,-13.60826 -0.0186,-13.71938 -3,-17.92181 l -3,-4.22865 -45.10327,-0.0214 -45.10326,-0.0213 -0.64674,7.65088 c -0.87079,10.30152 -0.79421,31.58244 0.11858,32.94917 0.40408,0.60503 1.40969,1.35701 2.23469,1.67106 0.825,0.31404 20.87422,0.60652 44.55383,0.64994 l 43.05384,0.0789 z"
           id="path55" /><path
           style="fill:#ffffff;fill-opacity:1;stroke-width:0.639;stroke-dasharray:none"
           d="m 120.98982,342.38481 -25.250003,-0.28513 v -16.31107 -16.31108 l 38.637613,-41.42175 c 45.8523,-49.15633 64.55799,-69.53298 65.70405,-71.57334 0.46292,-0.82413 0.54241,-1.79769 0.17665,-2.16345 -0.36577,-0.36576 -21.21951,-0.78932 -46.34167,-0.94125 -25.12215,-0.15193 -48.03914,-0.52629 -50.92664,-0.83193 l -5.250003,-0.5557 v -19.92805 -19.92804 h 64.839193 c 35.66156,0 73.57406,-0.29306 84.25,-0.65125 l 19.41081,-0.65124 -0.31091,19.80492 -0.3109,19.80492 -24.23651,25.59632 c -36.4058,38.44841 -70.59816,75.18362 -73.43143,78.89246 -1.96226,2.56865 -2.25246,3.56183 -1.31488,4.5 0.89875,0.89933 14.4716,1.28679 53.65387,1.53166 l 52.45076,0.32779 v 20.92221 20.92221 l -63.25,-0.23204 c -34.7875,-0.12762 -74.6125,-0.36035 -88.5,-0.51717 z"
           id="path56" /><path
           style="fill:#ffffff;fill-opacity:1;stroke-width:0.639;stroke-dasharray:none"
           d="m 737.95117,245.52948 0.28865,-57.89546 3.37279,-6.90025 c 5.95377,-12.18058 18.65813,-22.70951 34.2926,-28.42054 l 7.33461,-2.67921 37,-0.31904 c 25.22275,-0.21749 38.89535,0.0501 42.95454,0.84056 7.92082,1.54252 16.54546,4.83321 16.54546,6.31283 0,0.65486 -6.66447,7.84401 -14.80993,15.9759 l -14.80993,14.78524 -4.44007,-1.0233 c -2.44204,-0.56282 -12.58059,-1.0343 -22.53011,-1.04775 -14.79927,-0.02 -19.4951,0.33491 -25.81395,1.951 -8.86306,2.26679 -19.14041,7.39958 -21.24378,10.60973 -1.17075,1.7868 -1.45947,8.30682 -1.55329,35.07764 l -0.11524,32.88289 -18.3805,18.87261 -18.38049,18.87261 z"
           id="path57" /><path
           style="fill:#ffffff;fill-opacity:1;stroke-width:0.639;stroke-dasharray:none"
           d="m 778.23982,343.18003 c -7.3956,-1.94807 -12.50488,-3.9752 -12.49266,-4.95653 0.004,-0.32421 6.64154,-7.50357 14.75,-15.95413 l 14.74266,-15.36466 6.13805,1.22274 c 4.09859,0.81646 12.5714,1.07888 25.5,0.7898 18.70338,-0.41821 19.64239,-0.53849 27.60688,-3.53638 4.53471,-1.70689 9.64813,-4.1026 11.36314,-5.3238 5.64434,-4.01913 5.89193,-5.71667 5.89193,-40.39679 v -31.53797 l 17.98649,-18.24415 17.9865,-18.24414 -0.2365,58 -0.23649,58 -3.38346,6.5 c -6.96594,13.38235 -22.19992,24.80134 -38.72602,29.028 -6.99819,1.78983 -11.04431,1.96691 -43.80049,1.91694 -31.75911,-0.0485 -36.93006,-0.27633 -43.09003,-1.89893 z"
           id="path58" /><path
           style="fill:#ffffff;fill-opacity:1;stroke-width:0.639;stroke-dasharray:none"
           d="m 778.23982,343.18003 c -7.41228,-1.95246 -12.5,-3.97362 -12.5,-4.96577 0,-0.3293 6.6375,-7.50901 14.75,-15.95491 l 14.75,-15.35618 6.07883,1.21186 c 3.97889,0.79321 12.61521,1.07417 25,0.8133 17.49426,-0.3685 19.52447,-0.60681 26.92117,-3.16006 10.24247,-3.53559 15.65161,-7.20898 17.19356,-11.67629 0.82059,-2.37741 1.21119,-13.253 1.25,-34.80399 l 0.0564,-31.34603 17.99851,-18.15397 17.99851,-18.15397 -0.24851,58 -0.24851,58 -3.38346,6.5 c -6.96594,13.38235 -22.19992,24.80134 -38.72602,29.028 -6.99819,1.78983 -11.04431,1.96691 -43.80049,1.91694 -31.75911,-0.0485 -36.93006,-0.27633 -43.09003,-1.89893 z"
           id="path59" /><path
           style="fill:#ffffff;fill-opacity:1;stroke-width:0.639;stroke-dasharray:none"
           d="m 778.23982,343.18003 c -7.50286,-1.97632 -12.5,-3.97542 -12.5,-5.00061 0,-0.34846 6.6375,-7.52803 14.75,-15.9546 l 14.75,-15.32105 6.20521,1.23642 c 4.23003,0.84285 12.18777,1.07775 25,0.73794 20.251,-0.53709 24.69552,-1.39544 35.52443,-6.86067 9.56525,-4.82746 9.22411,-3.35305 9.58053,-41.40768 l 0.31016,-33.11679 17.9643,-17.92949 17.96431,-17.92948 -0.27447,58 -0.27447,58 -3.38346,6.5 c -6.96594,13.38235 -22.19992,24.80134 -38.72602,29.028 -6.99819,1.78983 -11.04431,1.96691 -43.80049,1.91694 -31.75911,-0.0485 -36.93006,-0.27633 -43.09003,-1.89893 z"
           id="path60" /><path
           style="fill:#ffffff;fill-opacity:1;stroke-width:0.639;stroke-dasharray:none"
           d="m 778.23982,343.18003 c -7.59811,-2.00141 -12.5,-3.97732 -12.5,-5.03863 0,-0.36938 6.6375,-7.54027 14.75,-15.93532 l 14.75,-15.26373 6.90186,1.22494 c 9.80666,1.74047 41.20336,0.75369 48.59814,-1.52741 7.75683,-2.39279 16.91498,-7.44681 18.85486,-10.40523 1.42493,-2.17312 1.68939,-6.94438 1.97575,-35.64573 l 0.33061,-33.13677 17.94386,-17.90907 17.94386,-17.90906 -0.27447,58 -0.27447,58 -3.38346,6.5 c -6.96594,13.38235 -22.19992,24.80134 -38.72602,29.028 -6.99819,1.78983 -11.04431,1.96691 -43.80049,1.91694 -31.75911,-0.0485 -36.93006,-0.27633 -43.09003,-1.89893 z"
           id="path61" /><path
           style="fill:#ffffff;fill-opacity:1;stroke-width:0.3195;stroke-dasharray:none"
           d="m 516.73982,247.05382 v -96.0802 l 60.875,0.32992 c 33.48125,0.18145 65.21208,0.54964 70.51296,0.81819 9.09759,0.46089 9.94693,0.5909 15.14866,2.31886 13.13575,4.36355 22.80397,13.17907 29.03375,26.47307 1.04393,2.22767 2.25739,5.38233 2.6966,7.01034 1.00401,3.72161 1.9153,26.84484 1.59454,40.46002 -0.2481,10.53094 -0.79814,13.13558 -4.22354,20 -3.47795,6.96971 -6.90721,11.50864 -11.42235,15.11849 -5.11781,4.09168 -12.13494,8.42842 -14.92186,9.22204 -2.7377,0.7796 -3.89337,1.80794 -3.48342,3.0996 0.53436,1.68362 8.22599,14.60059 18.34627,30.80987 11.03717,17.67781 20.84339,33.94845 20.84339,34.58366 0,1.32163 -3.5419,1.57627 -25.05414,1.80125 l -22.30414,0.23325 -14.99566,-24.93408 c -17.69371,-29.42028 -23.04575,-37.93477 -25.04336,-39.84117 -2.33924,-2.23243 -5.95138,-2.49598 -29.6027,-2.1599 -11.4125,0.16217 -21.6487,0.47219 -22.7471,0.68893 -3.61843,0.714 -3.48294,-0.572 -3.66142,34.75306 l -0.15853,31.375 H 537.4563 516.73982 Z m 133.31905,-14.2948 c 5.01071,-4.32381 4.93095,-4.03062 4.93095,-18.125 0,-8.4174 -0.19133,-12.76966 -0.61153,-13.91097 -0.33634,-0.91354 -1.67349,-3.10729 -2.97144,-4.875 l -2.3599,-3.21403 h -45.07579 -45.07579 l -0.32595,7.125 c -0.60015,13.11893 -0.40652,32.57868 0.33425,33.59174 1.06657,1.45862 6.06407,1.63408 48.74452,1.7114 l 39.65838,0.0719 z"
           id="path62" /><path
           style="fill:#ffffff;fill-opacity:1;stroke-width:0.3195;stroke-dasharray:none"
           d="m 516.73982,247.05382 v -96.0802 l 60.875,0.32992 c 33.48125,0.18145 65.21208,0.54964 70.51296,0.81819 9.10694,0.46137 9.9429,0.58956 15.17246,2.32677 9.53467,3.16731 17.12573,8.55021 22.94106,16.26773 3.41502,4.53207 7.56435,12.66103 8.76309,17.16779 1.02513,3.85404 1.90664,26.16876 1.58014,40 -0.26749,11.33157 -0.59347,12.94309 -4.07468,20.14373 -3.5031,7.24592 -6.841,11.70575 -11.6222,15.52866 -5.08283,4.06408 -12.09667,8.38726 -14.85407,9.15573 -1.12407,0.31327 -2.43207,1.00456 -2.90668,1.5362 -0.8214,0.92011 -0.80162,1.08757 0.41101,3.48058 2.00468,3.95604 7.08139,12.38854 17.70309,29.4051 10.17091,16.29436 18.20293,29.50797 19.71438,32.43245 0.61242,1.18497 0.71284,1.83914 0.33961,2.21237 -0.88412,0.88412 -9.88694,1.29755 -28.8983,1.32708 l -18.09312,0.0281 -14.2765,-23.76202 c -17.16804,-28.57473 -23.72885,-39.01914 -25.68882,-40.89507 -2.33938,-2.23905 -5.94242,-2.50126 -29.59843,-2.154 -11.4125,0.16754 -21.6487,0.47842 -22.7471,0.69086 -3.61786,0.69971 -3.48256,-0.58322 -3.66431,34.74523 l -0.16141,31.375 h -20.71359 -20.71359 z m 133.3004,-14.2948 c 5.04315,-4.38825 4.9496,-4.04568 4.9496,-18.125 0,-8.4174 -0.19133,-12.76966 -0.61153,-13.91097 -0.33634,-0.91354 -1.67349,-3.10729 -2.97144,-4.875 l -2.3599,-3.21403 h -45.09894 -45.09894 l -0.34731,9.625 c -0.49282,13.65749 -0.17104,30.66837 0.59457,31.4326 1.06903,1.06711 9.07225,1.29015 49.05396,1.36706 l 39.16048,0.0753 z"
           id="path63" /><path
           style="fill:#ffffff;fill-opacity:1;stroke-width:0.3195;stroke-dasharray:none"
           d="m 516.73982,247.05382 v -96.0802 l 60.875,0.32992 c 33.48125,0.18145 65.21208,0.54964 70.51296,0.81819 9.10694,0.46137 9.9429,0.58956 15.17246,2.32677 9.3281,3.09869 16.41174,7.99945 22.29756,15.4264 3.51966,4.44124 8.19094,13.37682 9.41469,18.00912 1.55191,5.87453 2.29402,43.1261 1.00334,50.36477 -0.82416,4.62224 -4.48233,12.60042 -8.32887,18.16464 -3.93911,5.69812 -13.73622,13.16759 -21.10117,16.08786 -4.18978,1.66129 -4.57138,2.22598 -3.25864,4.8222 1.90368,3.76495 7.98576,13.88396 17.91774,29.81053 10.25112,16.4383 18.22727,29.56259 19.71049,32.43245 0.61242,1.18497 0.71284,1.83914 0.33961,2.21237 -0.88407,0.88407 -9.88661,1.29755 -28.89389,1.32708 l -18.08872,0.0281 -13.60565,-22.625 c -15.84725,-26.35259 -22.96114,-37.8015 -25.29678,-40.712 -2.74538,-3.42107 -2.7193,-3.41783 -27.17013,-3.37411 -21.93996,0.0392 -26.70707,0.27106 -28.21266,1.37197 -1.42615,1.04283 -1.76916,8.26845 -1.77846,37.46414 l -0.009,27.875 h -20.75 -20.75 z m 134.11167,-15.16324 c 2.47664,-2.40464 3.44371,-3.73004 3.73944,-5.125 0.21939,-1.03486 0.39264,-7.05656 0.385,-13.38156 -0.0155,-12.84334 -0.002,-12.78343 -4.14585,-18.334 l -1.80372,-2.416 h -45.0652 -45.06521 l -0.32807,7.5795 c -0.41082,9.49142 -0.4183,29.05815 -0.0121,31.51522 0.16775,1.0146 0.67153,2.003 1.1195,2.19644 1.83867,0.79399 13.22049,1.0532 49.57505,1.12903 l 38.26061,0.0798 z"
           id="path64" /><path
           style="fill:#ffffff;fill-opacity:1;stroke-width:0.3195;stroke-dasharray:none"
           d="m 516.73982,247.05382 v -96.0802 l 60.875,0.32992 c 33.48125,0.18145 65.21208,0.54964 70.51296,0.81819 9.10694,0.46137 9.9429,0.58956 15.17246,2.32677 9.3281,3.09869 16.41174,7.99945 22.29756,15.4264 3.52156,4.44364 8.19285,13.38075 9.41309,18.00912 1.56296,5.92834 2.30421,43.07789 1.00494,50.36477 -0.82048,4.60159 -4.47829,12.59458 -8.28084,18.09516 -4.57219,6.61391 -13.30456,12.9745 -23.62017,17.20476 -0.91453,0.37504 -1.375,0.93354 -1.375,1.66775 0,1.40995 3.73421,7.99248 13.4264,23.66756 25.68278,41.53647 25.98024,42.04336 25.15589,42.8677 -0.92374,0.92375 -9.55627,1.33271 -28.66511,1.35802 l -18.33282,0.0243 -12.87477,-21.375 c -14.66699,-24.35047 -22.97416,-37.79098 -25.5198,-41.28953 -3.04563,-4.1857 -2.41967,-4.09182 -26.93979,-4.04028 -21.98893,0.0462 -27.51963,0.31051 -28.98939,1.38522 -1.38032,1.00932 -1.72358,8.48283 -1.74278,37.94459 l -0.0178,27.375 h -20.75 -20.75 z m 134.16792,-15.33709 c 3.36332,-3.38929 3.39541,-3.44767 3.91677,-7.125 0.29496,-2.08049 0.42421,-7.77194 0.2945,-12.96829 -0.25814,-10.34092 -0.53964,-11.44054 -4.18723,-16.35682 l -1.94196,-2.61741 -45.04672,-0.008 -45.04672,-0.008 -0.32662,7.875 c -0.41005,9.88674 -0.41848,28.77296 -0.0139,31.21972 0.16775,1.0146 0.67153,2.00871 1.1195,2.20913 1.6364,0.73213 15.0996,1.02455 51.0779,1.10942 l 36.76338,0.0875 z"
           id="path65" /><path
           style="fill:#ffffff;fill-opacity:1;stroke-width:0.3195;stroke-dasharray:none"
           d="m 516.73982,247.05382 v -96.0802 l 60.875,0.33236 c 69.89076,0.3816 77.86913,0.62829 84.125,2.60114 10.98563,3.46443 18.15167,8.38228 24.51016,16.82063 3.40973,4.52505 7.55892,12.65814 8.75249,17.15627 1.58033,5.95573 2.32576,43.00426 1.01336,50.36477 -0.8191,4.59384 -4.47678,12.5924 -8.26296,18.0693 -4.63421,6.70361 -13.20823,12.95353 -23.63805,17.23062 -0.94702,0.38836 -1.375,0.92765 -1.375,1.7326 0,1.48542 5.04493,10.10489 20.3482,34.76574 15.9319,25.67387 18.9776,30.96117 18.25256,31.68621 -0.94225,0.94224 -9.46013,1.35102 -28.68215,1.37648 l -18.3314,0.0243 -12.13171,-20.125 c -13.84223,-22.96255 -24.14436,-39.63347 -26.44197,-42.78847 -2.44659,-3.35956 -3.62632,-3.64953 -15.99118,-3.93056 -11.24965,-0.25568 -37.64089,0.47961 -39.13759,1.09041 -1.87109,0.76361 -2.02228,3.10259 -2.25448,34.87862 l -0.22561,30.875 h -20.70233 -20.70234 z m 134.13861,-15.34077 c 1.81646,-1.88154 3.48463,-4.07529 3.70703,-4.875 0.2224,-0.79972 0.39448,-6.62903 0.3824,-12.95403 -0.0246,-12.89864 -0.12021,-13.33953 -4.03608,-18.6174 l -1.94196,-2.61741 -45.06934,-0.008 -45.06934,-0.008 -0.3601,11.125 c -0.19806,6.11875 -0.27935,15.11091 -0.18066,19.98258 0.15523,7.66271 0.29906,8.97714 1.06623,9.74393 1.22835,1.22775 8.86888,1.45432 52.65618,1.56149 l 35.54297,0.0878 z"
           id="path66" /><path
           style="fill:#ffffff;fill-opacity:1;stroke-width:0.3195;stroke-dasharray:none"
           d="m 516.73982,247.05357 v -96.08045 l 61.125,0.33135 c 65.25149,0.35372 77.55967,0.68833 82.875,2.25304 11.16218,3.28589 19.04697,8.59293 25.51016,17.17024 3.4118,4.5278 7.56085,12.66218 8.75078,17.15627 1.59173,6.01159 2.3363,42.95475 1.01507,50.36477 -0.8191,4.59384 -4.47678,12.5924 -8.26296,18.0693 -4.63421,6.70361 -13.20823,12.95353 -23.63805,17.23062 -0.90347,0.3705 -1.375,0.9354 -1.375,1.64729 0,1.41099 4.42087,9.0695 16.41583,28.43802 21.38615,34.53267 22.98988,37.29429 22.14705,38.13712 -0.93937,0.93936 -11.28925,1.37744 -29.39517,1.2442 l -17.84575,-0.13132 -10.65623,-17.75 c -15.74385,-26.22442 -24.62223,-40.62751 -27.26991,-44.23905 -1.91497,-2.6121 -2.75451,-3.33244 -4.5,-3.86107 -1.62765,-0.49295 -7.03271,-0.63172 -22.38311,-0.57467 -19.9895,0.0743 -27.72424,0.37847 -28.95423,1.13864 -1.44623,0.89382 -1.66771,4.9305 -1.91555,34.91115 l -0.25316,30.625 h -20.69488 -20.69489 z m 133.83296,-15.04455 c 1.67973,-1.71875 3.35033,-3.6875 3.71242,-4.375 0.49258,-0.93523 0.65523,-4.27182 0.64592,-13.25 -0.014,-13.46988 -0.0376,-13.58632 -3.81275,-18.78798 l -2.12855,-2.93287 -45.06906,-0.0146 -45.06905,-0.0146 -0.36574,11.70481 c -0.20116,6.43764 -0.27566,15.43653 -0.16555,19.99753 0.16956,7.02407 0.33268,8.42522 1.06622,9.15877 1.17715,1.17714 10.33073,1.44081 53.86762,1.55165 l 34.26445,0.0873 z"
           id="path67" /><path
           style="fill:#ffffff;fill-opacity:1;stroke-width:0.3195;stroke-dasharray:none"
           d="m 516.73982,247.05312 v -96.0809 l 61.625,0.33991 c 67.27894,0.3711 76.59229,0.63397 82.70039,2.3343 10.39199,2.89283 18.78057,8.5823 25.18477,17.08132 3.41393,4.53063 7.56283,12.66635 8.74902,17.15627 1.61514,6.11359 2.34626,42.9068 1.00243,50.44765 -0.85536,4.7999 -5.40709,14.40412 -9.14795,19.30235 -3.73216,4.88684 -11.97191,11.14925 -18.52484,14.07931 -6.27085,2.80394 -6.27113,2.8044 -4.20199,6.78012 1.95119,3.74909 9.13483,15.67047 19.36742,32.14057 16.17924,26.04169 18.62603,30.31972 17.80863,31.13712 -0.93937,0.93937 -11.28928,1.37744 -29.39557,1.2442 l -17.84615,-0.13132 -12.89715,-21.44277 c -15.39195,-25.59062 -22.8481,-37.63509 -25.48235,-41.16352 -2.90542,-3.89165 -2.8193,-3.87907 -25.94166,-3.79028 -19.84271,0.0762 -28.28456,0.39538 -29.44625,1.11334 -1.40126,0.86603 -1.63494,5.14666 -1.90562,34.90823 l -0.27853,30.625 h -20.6848 -20.6848 z m 133.83296,-15.0441 c 1.67973,-1.71875 3.31693,-3.63971 3.6382,-4.2688 0.39674,-0.77684 0.58526,-4.95638 0.58764,-13.02746 0.004,-13.48075 -0.14079,-14.24329 -3.61103,-19.0227 l -2.19777,-3.02689 -45.06879,-0.0146 -45.06879,-0.0146 -0.37029,12.34393 c -0.50942,16.98204 -0.16867,27.44382 0.92965,28.54213 1.1124,1.11241 11.9309,1.41217 55.09266,1.52649 l 33.01445,0.0875 z"
           id="path68" /><path
           style="fill:#ffffff;fill-opacity:1;stroke-width:0.3195;stroke-dasharray:none"
           d="m 516.73982,247.05334 v -96.08069 l 61.375,0.33023 c 66.0426,0.35534 77.1207,0.66767 83.09136,2.34269 11.03879,3.09683 20.40317,9.89086 26.71115,19.37941 2.89637,4.35676 6.02593,10.94361 7.07887,14.89902 1.6376,6.15176 2.3677,42.76224 1.00523,50.40767 -0.83483,4.68468 -5.35103,14.32678 -8.95767,19.12467 -3.74688,4.98445 -12.00868,11.19833 -19.64991,14.77914 -2.31814,1.08631 -4.32871,2.27194 -4.46792,2.63472 -0.48675,1.26847 3.98289,9.04535 19.97996,34.76382 8.62449,13.86558 16.55511,26.99332 17.90248,29.63437 0.69272,1.35785 0.8503,2.14677 0.49897,2.4981 -0.95764,0.95765 -10.80033,1.38065 -29.05965,1.24887 l -18.20025,-0.13134 -7.94667,-13.25 c -12.02354,-20.04762 -24.6408,-40.66652 -28.25813,-46.17891 -4.77646,-7.27878 -2.73232,-6.80225 -29.10282,-6.78444 -20.37043,0.0138 -28.00685,0.30353 -28.79599,1.09266 -0.97546,0.97547 -1.25555,7.34446 -1.53905,34.99569 l -0.31142,30.375 h -20.67677 -20.67677 z m 133.91399,-15.11901 c 1.68988,-1.75983 3.30054,-3.79948 3.57926,-4.53255 0.779,-2.04893 0.61814,-24.583 -0.19167,-26.85026 -0.35999,-1.00788 -1.64386,-3.19507 -2.85305,-4.86043 l -2.19853,-3.02792 -45.04577,-0.0146 -45.04577,-0.0146 -0.32923,9.8304 c -0.41827,12.48904 -0.42059,23.64886 -0.006,27.618 0.25357,2.42608 0.55078,3.22123 1.375,3.67866 1.45112,0.80535 17.54462,1.17514 55.84724,1.28322 l 31.79602,0.0898 z"
           id="path69" /></g></g></g></svg>
