<?xml version="1.0" encoding="UTF-8" standalone="no"?>
<!-- Created with Inkscape (http://www.inkscape.org/) -->

<svg
   width="1023.9999"
   height="1023.9999"
   viewBox="0 0 270.93333 270.93333"
   version="1.1"
   id="svg1"
   inkscape:version="1.4.2 (2aeb623e1d, 2025-05-12)"
   sodipodi:docname="ZERO_Symbol_WHITE.svg"
   inkscape:export-filename="just_zero_black.png"
   inkscape:export-xdpi="96"
   inkscape:export-ydpi="96"
   xmlns:inkscape="http://www.inkscape.org/namespaces/inkscape"
   xmlns:sodipodi="http://sodipodi.sourceforge.net/DTD/sodipodi-0.dtd"
   xmlns="http://www.w3.org/2000/svg"
   xmlns:svg="http://www.w3.org/2000/svg">
  <sodipodi:namedview
     id="namedview1"
     pagecolor="#000000"
     bordercolor="#000000"
     borderopacity="0.25"
     inkscape:showpageshadow="2"
     inkscape:pageopacity="0.0"
     inkscape:pagecheckerboard="0"
     inkscape:deskcolor="#d1d1d1"
     inkscape:document-units="mm"
     inkscape:zoom="0.34431468"
     inkscape:cx="-120.52928"
     inkscape:cy="589.57696"
     inkscape:window-width="1638"
     inkscape:window-height="996"
     inkscape:window-x="0"
     inkscape:window-y="0"
     inkscape:window-maximized="1"
     inkscape:current-layer="layer1"
     inkscape:export-bgcolor="#00000000"
     showgrid="false">
    <inkscape:page
       x="0"
       y="0"
       width="270.93332"
       height="270.93332"
       id="page2"
       margin="0"
       bleed="0" />
  </sodipodi:namedview>
  <defs
     id="defs1" />
  <g
     inkscape:label="Layer 1"
     inkscape:groupmode="layer"
     id="layer1">
    <g
       id="g4-6"
       transform="matrix(0.9002781,0,0,0.9002781,-603.92424,-55.841886)"
       style="fill:#ffffff">
      <g
         id="g10"
         style="fill:#ffffff">
        <path
           id="rect32-5-3-47"
           style="fill:#ffffff;stroke-width:0.561905"
           d="m 733.63961,267.23287 38.4215,-37.11914 -0.147,-19.69335 0.012,-29.37696 c 0.7526,-14.3738 0.4747,-11.17414 0.8372,-15.9053 0.7648,-9.98219 20.2087,-12.26441 28.2927,-12.22361 1.8131,0.009 9.5522,-0.35777 20.5354,-0.36328 15.0502,-0.007 18.9234,0.0884 21.1922,0.51758 1.9618,0.37119 4.5017,0.95438 7.2468,1.71875 l 32.3474,-31.25195 c -7.0364,-3.43378 -15.0943,-5.78835 -23.7771,-6.81055 -3.7168,-0.43762 -9.9256,-0.52826 -36.4129,-0.5293 -30.0211,-0.001 -32.2261,0.0395 -36.834,0.68555 -7.7091,1.08075 -12.7654,2.4622 -19.4516,5.3125 -13.4856,5.74887 -24.4812,15.6259 -29.4301,26.43945 -3.095,6.76311 -3.2211,6.11371 -3.3363,29.66992 l -0.048,35.27149 c -0.015,18.55042 0.013,28.65054 0.048,32.86329 0.094,11.12632 0.1432,16.97577 0.5037,20.79491 z"
           sodipodi:nodetypes="ccccsscsccscsssccssc" />
        <path
           id="rect32-5-3-4-65"
           style="fill:#ffffff;stroke-width:0.561905"
           d="m 903.95417,156.59031 -38.42154,37.11914 0.147,19.69335 -0.012,29.37696 c -0.7526,14.3738 -0.4747,11.17414 -0.8372,15.9053 -0.7648,9.98219 -20.2087,12.26441 -28.2927,12.22362 -1.8131,-0.009 -9.5522,0.35777 -20.5354,0.36327 -15.0502,0.007 -18.9234,-0.0884 -21.1922,-0.51758 -1.9618,-0.37119 -4.50168,-0.95438 -7.24678,-1.71875 l -32.3474,31.25195 c 7.0364,3.43379 15.0943,5.78835 23.7771,6.81055 3.7168,0.43762 9.9256,0.52826 36.41288,0.5293 30.0211,0.001 32.2261,-0.0395 36.834,-0.68555 7.7091,-1.08075 12.7654,-2.4622 19.45164,-5.3125 13.4856,-5.74887 24.4812,-15.6259 29.4301,-26.43945 3.095,-6.76311 3.2211,-6.11371 3.3363,-29.66992 l 0.048,-35.27149 c 0.015,-18.55042 -0.013,-28.65054 -0.048,-32.86329 -0.094,-11.12632 -0.1432,-16.97577 -0.5037,-20.79491 z"
           sodipodi:nodetypes="ccccsscsccscsssccssc" />
      </g>
      <path
         id="rect7"
         style="fill:#ffffff;stroke-width:0.816654"
         d="m 902.17395,130.57063 -181.67497,175.66901 0.26046,0.26997 h 28.77499 L 931.48887,130.57063 Z" />
    </g>
  </g>
</svg>
