<?xml version="1.0" encoding="UTF-8" standalone="no"?>
<!-- Created with Inkscape (http://www.inkscape.org/) -->

<svg
   version="1.1"
   id="svg1"
   width="1024"
   height="500"
   viewBox="0 0 1024 500"
   sodipodi:docname="ZERO_INDUSTRIES_WHITE.svg"
   inkscape:export-filename="../d4786bee/ZERO_INDUSTRIES_BLACK.png"
   inkscape:export-xdpi="96"
   inkscape:export-ydpi="96"
   inkscape:version="1.4.2 (2aeb623e1d, 2025-05-12)"
   xml:space="preserve"
   xmlns:inkscape="http://www.inkscape.org/namespaces/inkscape"
   xmlns:sodipodi="http://sodipodi.sourceforge.net/DTD/sodipodi-0.dtd"
   xmlns="http://www.w3.org/2000/svg"
   xmlns:svg="http://www.w3.org/2000/svg"><defs
     id="defs1"><inkscape:path-effect
       effect="fillet_chamfer"
       id="path-effect34"
       is_visible="true"
       lpeversion="1"
       nodesatellites_param="F,0,0,1,0,0,0,1 @ F,0,0,1,0,0,0,1 @ F,0,0,1,0,0,0,1 @ F,0,0,1,0,0,0,1 @ F,0,0,1,0,0,0,1"
       radius="0"
       unit="px"
       method="auto"
       mode="F"
       chamfer_steps="1"
       flexible="false"
       use_knot_distance="true"
       apply_no_radius="true"
       apply_with_radius="true"
       only_selected="false"
       hide_knots="false" /><inkscape:path-effect
       effect="fillet_chamfer"
       id="path-effect34-3"
       is_visible="true"
       lpeversion="1"
       nodesatellites_param="F,0,0,1,0,0,0,1"
       radius="0"
       unit="px"
       method="auto"
       mode="F"
       chamfer_steps="1"
       flexible="false"
       use_knot_distance="true"
       apply_no_radius="true"
       apply_with_radius="true"
       only_selected="false"
       hide_knots="false" /></defs><sodipodi:namedview
     id="namedview1"
     pagecolor="#000000"
     bordercolor="#000000"
     borderopacity="0"
     inkscape:showpageshadow="2"
     inkscape:pageopacity="0.0"
     inkscape:pagecheckerboard="0"
     inkscape:deskcolor="#d1d1d1"
     inkscape:zoom="0.70710678"
     inkscape:cx="504.87424"
     inkscape:cy="215.66757"
     inkscape:window-width="1920"
     inkscape:window-height="1043"
     inkscape:window-x="0"
     inkscape:window-y="0"
     inkscape:window-maximized="1"
     inkscape:current-layer="g3" /><g
     inkscape:groupmode="layer"
     inkscape:label="Image"
     id="g1"><g
       id="g52"
       transform="translate(10.260183,4.650695)"><g
         id="g2"
         transform="translate(2.0439073e-5,-1.7847105)"><g
           id="g3"
           transform="translate(0.05917357,10.944717)"><text
             xml:space="preserve"
             style="font-style:normal;font-variant:normal;font-weight:300;font-stretch:normal;font-size:72.1409px;font-family:'Bank Gothic Light';-inkscape-font-specification:'Bank Gothic Light, Light';font-variant-ligatures:normal;font-variant-caps:normal;font-variant-numeric:normal;font-variant-east-asian:normal;text-align:start;writing-mode:lr-tb;direction:ltr;text-anchor:start;fill:#ffffff;stroke-width:0.901761"
             x="428.87427"
             y="398.95093"
             id="text5"
             transform="scale(1.1089409,0.90176132)"><tspan
               sodipodi:role="line"
               id="tspan5"
               x="428.87427"
               y="398.95093"
               style="font-style:normal;font-variant:normal;font-weight:normal;font-stretch:semi-expanded;font-size:39.6775px;font-family:'BankGothic Md BT';-inkscape-font-specification:'BankGothic Md BT, Semi-Expanded';font-variant-ligatures:normal;font-variant-caps:normal;font-variant-numeric:normal;font-variant-east-asian:normal;fill:#ffffff;stroke-width:0.901761">I N D U S T R I E S</tspan></text><path
             d="m 94.857112,307.5852 c 0,0 -0.22369,-33.69936 0.02631,-33.67406 C 130.88436,235.43999 166.85207,196.95115 202.00843,157.7021 H 94.883422 V 116.19537 H 266.74268 l -0.20552,38.42881 -18.67432,19.79925 c -69.6438,73.83914 -81.51267,89.79859 -81.51267,89.79859 h 96.50482 l -0.35355,43.26966 c -0.23362,0.20727 -167.644328,0.0935 -167.644328,0.0935 z m 215.757238,-1.72617 c -0.33636,-0.9842 -0.46319,-44.06113 -0.28182,-95.72654 l 0.32975,-93.93712 h 83.38357 83.38357 v 19.92605 19.92605 l -61.74204,0.71165 -61.74203,0.71164 v 16.36783 16.36784 l 51.55778,0.71165 51.55778,0.71164 v 18.50277 18.50276 l -51.55778,0.71165 -51.55778,0.71164 v 17.79112 17.79112 l 62.09517,0.36938 62.09518,0.36939 -0.35315,20.26831 -0.35313,20.26831 -83.10172,0.36614 c -65.80543,0.28993 -83.22903,-0.006 -83.71335,-1.42328 z M 516.25687,116.19537 h 134.63005 c 28.87059,0 45.91413,24.60447 45.91413,35.46579 v 26.06352 23.44483 c 0,20.62504 -29.77789,33.65901 -32.91337,36.32761 0,0 -1.64392,1.57667 -0.87858,2.9025 l 38.80796,67.2282 H 654.00885 C 615.64604,242.574 615.15313,242.44116 615.15313,242.44116 h -56.88622 v 65.18666 h -42.01004 z m 134.84374,79.57771 c 3.85971,-3.63109 3.91674,-3.87875 3.91674,-17.00012 0,-12.02237 -0.29819,-13.70323 -3.07144,-17.30879 l -3.07156,-3.99341 h -89.97093 v 41.98706 h 88.28046 z"
             style="fill:#ffffff;stroke-width:1.34607"
             id="path1-8"
             sodipodi:nodetypes="cccccccscccccscccccccccccccccccccsscsscsscssscccccsccccsccsc" /><g
             id="g4"
             transform="translate(6,-3.7280973e-4)"
             style="fill:#ffffff"><g
               id="g10"
               style="fill:#ffffff"><path
                 id="rect32-5-3-47"
                 style="fill:#ffffff;stroke-width:0.561905"
                 d="m 768.24541,232.85006 c 2.6495,-11.47656 -12.7099,12.77298 0,0 z m -34.6058,34.38281 38.4215,-37.11914 -0.147,-19.69335 0.012,-29.37696 c 0.7526,-14.3738 0.4747,-11.17414 0.8372,-15.9053 0.7648,-9.98219 20.2087,-12.26441 28.2927,-12.22361 1.8131,0.009 9.5522,-0.35777 20.5354,-0.36328 15.0502,-0.007 18.9234,0.0884 21.1922,0.51758 1.9618,0.37119 4.5017,0.95438 7.2468,1.71875 l 32.3474,-31.25195 c -7.0364,-3.43378 -15.0943,-5.78835 -23.7771,-6.81055 -3.7168,-0.43762 -9.9256,-0.52826 -36.4129,-0.5293 -30.0211,-0.001 -32.2261,0.0395 -36.834,0.68555 -7.7091,1.08075 -12.7654,2.4622 -19.4516,5.3125 -13.4856,5.74887 -24.4812,15.6259 -29.4301,26.43945 -3.095,6.76311 -3.2211,6.11371 -3.3363,29.66992 l -0.048,35.27149 c -0.015,18.55042 0.013,28.65054 0.048,32.86329 0.094,11.12632 0.1432,16.97577 0.5037,20.79491 z"
                 sodipodi:nodetypes="ccccccsscsccscsssccssc" /><path
                 id="rect32-5-3-4-65"
                 style="fill:#ffffff;stroke-width:0.561905"
                 d="m 869.34837,190.97312 c -2.64954,11.47657 12.7099,-12.77297 0,0 z m 34.6058,-34.38281 -38.42154,37.11914 0.147,19.69335 -0.012,29.37696 c -0.7526,14.3738 -0.4747,11.17414 -0.8372,15.9053 -0.7648,9.98219 -20.2087,12.26441 -28.2927,12.22362 -1.8131,-0.009 -9.5522,0.35777 -20.5354,0.36327 -15.0502,0.007 -18.9234,-0.0884 -21.1922,-0.51758 -1.9618,-0.37119 -4.50168,-0.95438 -7.24678,-1.71875 l -32.3474,31.25195 c 7.0364,3.43379 15.0943,5.78835 23.7771,6.81055 3.7168,0.43762 9.9256,0.52826 36.41288,0.5293 30.0211,0.001 32.2261,-0.0395 36.834,-0.68555 7.7091,-1.08075 12.7654,-2.4622 19.45164,-5.3125 13.4856,-5.74887 24.4812,-15.6259 29.4301,-26.43945 3.095,-6.76311 3.2211,-6.11371 3.3363,-29.66992 l 0.048,-35.27149 c 0.015,-18.55042 -0.013,-28.65054 -0.048,-32.86329 -0.094,-11.12632 -0.1432,-16.97577 -0.5037,-20.79491 z"
                 sodipodi:nodetypes="ccccccsscsccscsssccssc" /></g><path
               id="rect7"
               style="fill:#ffffff;stroke-width:0.816654"
               d="m 902.17395,130.57063 -181.67497,175.66901 0.26046,0.26997 h 28.77499 L 931.48887,130.57063 Z" /></g></g></g></g></g></svg>
